<svg xmlns="http://www.w3.org/2000/svg" xmlns:xlink="http://www.w3.org/1999/xlink" version="1.1" viewBox="0 0 100 100" xml:space="preserve">
<defs>
</defs>
<g transform="matrix(1 0 0 1 50 50)">
<linearGradient id="SVGID_29114" gradientUnits="userSpaceOnUse" gradientTransform="matrix(1 0 0 1 7.900102870834807 8.028599999999983)"  x1="0" y1="0" x2="84.20139112916519" y2="83.94449399999999">
<stop offset="0%" style="stop-color:rgb(143,94,37);stop-opacity: 1"/>
<stop offset="50%" style="stop-color:rgb(251,244,161);stop-opacity: 1"/>
<stop offset="100%" style="stop-color:rgb(143,94,37);stop-opacity: 1"/>
</linearGradient>
<path style="stroke: none; stroke-width: 0; stroke-dasharray: none; stroke-linecap: butt; stroke-dashoffset: 0; stroke-linejoin: miter; stroke-miterlimit: 4; fill: url(#SVGID_29114); fill-rule: nonzero; opacity: 1;"  transform=" translate(-50.0007984354174, -50.00084699999998)" d="m 39.117 77.52 c -0.63281 0.078125 -1.2695 0.13672 -1.9141 0.17188 c 1.0625 -3.125 2.832 -9.5234 0.71094 -12.523 c -1.1797 -1.8906 -2.7617 -3.4961 -4.6328 -4.7031 l -0.11719 -0.074219 c 0.058594 -0.35156 0.22656 -1.0117 0.41797 -1.75 c 0.16016 -0.625 0.35547 -1.3984 0.58984 -2.3633 h -0.003906 c 0.097656 -0.41406 -0.019531 -0.84766 -0.3125 -1.1562 l -3.9961 -4.1914 c -0.10938 -0.11328 -0.23828 -0.20313 -0.37891 -0.26953 c -0.77734 -0.21484 -1.5977 -0.21094 -2.375 0.007813 c -0.63281 0.10156 -1.2734 0.16016 -1.9141 0.16797 c -0.625 -0.22266 -1.1758 -0.39453 -1.6562 -0.54688 c -1.2422 -0.39453 -1.8516 -0.59766 -2.0898 -0.94922 c -0.37891 -0.80859 -0.60156 -1.6836 -0.65625 -2.5742 c -0.28125 -1.9414 -0.66016 -4.5469 -2.957 -5.8828 c -1.2422 -4.0117 -1.1836 -8.3125 0.17969 -12.285 c 3.4102 -2.8164 7.4453 -4.7773 11.77 -5.7109 c 0.64062 0.054687 1.043 0.3125 1.0938 0.49219 c 0.050781 0.17969 -0.19531 0.98047 -1.9375 2.0586 c -0.51562 0.32031 -0.72656 0.96094 -0.50391 1.5234 c 0.64453 1.4844 1.7148 2.7422 3.0742 3.6133 c 0.71875 0.51953 1.3906 1.1016 2 1.7422 c 0.30859 0.33203 0.76953 0.47656 1.207 0.37109 c 0.44141 -0.10547 0.78906 -0.4375 0.91406 -0.87109 c 0.48438 -1.7109 1.2148 -2.7188 2.168 -3.0039 h 0.003906 c 1.2148 -0.17578 2.4453 0.21094 3.3438 1.0469 c 0.26562 0.23047 0.53516 0.44531 0.78906 0.64844 l 0.003906 0.003907 c 0.37109 0.27734 0.71875 0.58594 1.0391 0.91797 c -0.19531 0.082031 -0.43359 0.17187 -0.60547 0.23437 c -0.87109 0.32031 -2.0625 0.75391 -1.9727 1.9805 c 0.19141 2.6719 -0.26563 3.1055 -0.26172 3.1055 c -0.375 0.015625 -0.75 -0.03125 -1.1133 -0.13672 c -1.0234 -0.22266 -2.7344 -0.59766 -3.8086 0.92578 h 0.003906 c -0.875 1.2969 -1.6758 2.6406 -2.4062 4.0234 c -0.16797 0.30078 -0.33594 0.60547 -0.50391 0.91016 c -0.63281 -0.60938 -1.7539 -0.58594 -3.8242 -0.53906 l -0.003906 -0.003906 c -2.0586 0.066406 -3.918 1.2578 -4.832 3.1055 c -0.65625 1.125 -0.62891 2.5195 0.066406 3.6172 c 0.41016 0.55859 1.4141 1.4453 3.5625 1.1172 c 2.5 -0.38281 3.0898 0.085938 6.043 3.5039 c 0.28125 0.32422 0.70703 0.48047 1.1328 0.41797 c 13.621 -2.082 16.488 5.3242 17.434 7.7578 c 0.6875 1.7695 -3.3633 5.7109 -6.3203 8.582 c -2.7344 2.6484 -5.332 5.1719 -6.4492 7.4883 z m 51.34 2.4219 l -8.7383 -0.003906 c -0.91016 0.003906 -1.6484 0.73828 -1.6484 1.6484 v 8.7383 c 0 0.91016 0.73828 1.6484 1.6484 1.6484 h 8.7383 h -0.003906 c 0.91016 0 1.6484 -0.73828 1.6484 -1.6484 v -8.7383 c 0 -0.91016 -0.73828 -1.6445 -1.6484 -1.6484 z m -58.5 -17.359 c -1.6953 -1.0586 -1.4844 -1.875 -0.79688 -4.5586 c 0.12109 -0.46484 0.26172 -1.0195 0.42188 -1.668 l -3.1758 -3.3359 c -0.28125 0.027344 -0.67578 0.082031 -0.96875 0.11719 v 0.003906 c -0.99609 0.23047 -2.0312 0.25391 -3.0352 0.0625 c -0.60547 -0.21484 -1.1445 -0.38672 -1.6211 -0.53516 c -1.543 -0.48828 -2.6602 -0.84375 -3.3984 -1.918 l 0.003907 -0.003906 c -0.62109 -1.1133 -0.98438 -2.3516 -1.0664 -3.6211 c -0.32031 -2.2227 -0.62109 -3.6133 -2.0352 -4.2305 v -0.003906 c -0.33594 -0.14453 -0.58984 -0.43359 -0.69531 -0.78516 c -1.0352 -3.3008 -1.3555 -6.7773 -0.95312 -10.211 c -4.5664 5.2969 -6.9688 12.121 -6.7188 19.109 c 0.25391 6.9883 3.1367 13.625 8.0742 18.578 s 11.566 7.8555 18.555 8.125 c 1.5273 -4.1602 2.5781 -9.3398 1.3281 -11.105 v 0.003907 c -0.99219 -1.6133 -2.332 -2.9883 -3.918 -4.0234 z m 58.496 -6.6133 h -8.7344 c -0.91016 0 -1.6484 0.73828 -1.6484 1.6484 v 8.7383 c 0 0.91016 0.73828 1.6484 1.6484 1.6484 h 8.7383 h -0.003906 c 0.91016 0 1.6484 -0.73828 1.6484 -1.6484 v -8.7383 c 0 -0.91016 -0.73828 -1.6484 -1.6484 -1.6484 z m -54.82 -33.703 c -0.83203 0 -1.6602 0.039063 -2.4727 0.11328 v -0.003906 c 0.050782 0.11719 0.09375 0.23828 0.125 0.36328 c 0.22266 0.83984 0.19922 2.4219 -2.0742 4.168 v -0.003906 c 0.50781 0.65625 1.1211 1.2266 1.8086 1.6875 c 0.28906 0.21875 0.58984 0.44922 0.90625 0.70703 c 0.59375 -1.3672 1.7461 -2.418 3.1641 -2.8789 c 2.043 -0.44141 4.1719 0.14062 5.7031 1.5625 c 0.22266 0.19531 0.46484 0.38672 0.69922 0.57422 c 1.0664 0.84766 2.3945 1.9023 2.0508 3.5703 c -0.22656 1.1211 -1.3828 1.543 -2.3086 1.8828 c -0.089844 0.035157 -0.19922 0.074219 -0.30469 0.11328 c 0.10547 2.3672 -0.25781 3.7383 -1.1641 4.5273 h 0.003906 c -0.95703 0.66406 -2.1797 0.81641 -3.2734 0.40625 c -0.75781 -0.16406 -1.1328 -0.21875 -1.2383 -0.074219 h 0.003907 c -0.82422 1.2227 -1.5781 2.4844 -2.2695 3.7852 c -0.58203 1.0469 -1.1797 2.1328 -1.8359 3.168 c -0.24219 0.38672 -0.67969 0.60938 -1.1328 0.57812 c -0.45703 -0.027344 -0.85938 -0.30078 -1.0547 -0.71484 c -0.20703 -0.44531 -0.36719 -0.91016 -0.47266 -1.3906 c -0.44531 -0.019531 -1.2148 0 -1.9648 0.011719 c -1.1289 0.054687 -2.1406 0.70703 -2.6484 1.7188 c -0.20312 0.30469 -0.26172 0.6875 -0.15625 1.0391 c 0.070313 0.09375 0.40234 0.23828 1.1719 0.12109 c 3.6797 -0.5625 5.1172 0.67969 7.8633 3.8242 c 6.207 -0.83203 11.145 0.085937 14.672 2.7344 v 0.003906 c 2.2031 1.7227 3.8633 4.043 4.7773 6.6875 c 1.2852 3.3164 -2.6953 7.1797 -6.9102 11.273 h 0.003907 c -1.7148 1.582 -3.3242 3.2695 -4.8242 5.0547 c 8.8086 -2.2422 15.957 -8.6602 19.137 -17.176 c 3.1797 -8.5156 1.9844 -18.051 -3.1992 -25.516 c -5.1836 -7.4688 -13.695 -11.922 -22.785 -11.922 z m 54.82 -14.238 h -8.7344 c -0.91016 0 -1.6484 0.73828 -1.6484 1.6484 v 8.7383 c 0 0.91016 0.73828 1.6445 1.6484 1.6484 h 8.7383 h -0.003906 c 0.91016 -0.003906 1.6484 -0.73828 1.6484 -1.6484 v -8.7383 c 0 -0.91016 -0.73828 -1.6484 -1.6484 -1.6484 z m 0 23.973 l -8.7344 -0.003906 c -0.91016 0.003906 -1.6484 0.73828 -1.6484 1.6484 v 8.7383 c 0 0.91016 0.73828 1.6445 1.6484 1.6484 h 8.7383 h -0.003906 c 0.91016 -0.003906 1.6484 -0.73828 1.6484 -1.6484 v -8.7383 c 0 -0.91016 -0.73828 -1.6445 -1.6484 -1.6484 z m -20.23 -14.41 v 31.16 h -4.3906 c 0.015625 0.41797 0.027344 0.83203 0.027344 1.25 s -0.007813 0.83203 -0.023437 1.25 h 4.3828 v 31.16 c 0.003906 2.6445 2.1484 4.7852 4.793 4.7891 h 2.5156 v -2.5 h -2.5078 c -1.2695 0 -2.3008 -1.0273 -2.3008 -2.2969 v -19.172 h 4.8164 v -2.5 h -4.8164 v -21.469 h 4.8164 v -2.4922 h -4.8164 v -19.18 c 0 -1.2695 1.0312 -2.2969 2.3008 -2.2969 h 2.5156 v -2.5 h -2.5156 c -2.6484 0.003906 -4.7969 2.1484 -4.7969 4.7969 z" stroke-linecap="round" />
</g>
</svg>

